<svg width="34" height="30" viewBox="0 0 34 30" fill="none" xmlns="http://www.w3.org/2000/svg">
<path d="M2.00001 0H32C32.442 0 32.866 0.175595 33.1785 0.488155C33.4911 0.800716 33.6667 1.22464 33.6667 1.66667V28.3333C33.6667 28.7754 33.4911 29.1993 33.1785 29.5118C32.866 29.8244 32.442 30 32 30H2.00001C1.55798 30 1.13406 29.8244 0.821499 29.5118C0.508938 29.1993 0.333344 28.7754 0.333344 28.3333V1.66667C0.333344 1.22464 0.508938 0.800716 0.821499 0.488155C1.13406 0.175595 1.55798 0 2.00001 0ZM17.1 14.4717L6.41334 5.39667L4.25501 7.93667L17.1217 18.8617L29.7567 7.92833L27.5767 5.40667L17.1017 14.4717H17.1Z" fill="white"/>
</svg>
