<svg width="30" height="50" viewBox="0 0 30 50" fill="none" xmlns="http://www.w3.org/2000/svg">
<path d="M25.5184 0H4.48132C2.46799 0 0.842743 1.63253 0.842743 3.64223V46.3614C0.842743 48.3693 2.46799 50 4.48132 50H25.5184C27.5281 50 29.157 48.3693 29.157 46.3614V3.64223C29.157 1.63253 27.5281 0 25.5184 0ZM9.80892 2.21194H20.1945C20.4568 2.21194 20.67 2.60367 20.67 3.08833C20.67 3.57299 20.4568 3.96655 20.1945 3.96655H9.80892C9.54473 3.96655 9.3352 3.57299 9.3352 3.08833C9.3352 2.60367 9.54473 2.21194 9.80892 2.21194ZM15.0017 46.4051C13.7208 46.4051 12.6786 45.3629 12.6786 44.0802C12.6786 42.7975 13.7208 41.759 15.0017 41.759C16.2789 41.759 17.3211 42.7975 17.3211 44.0802C17.3211 45.3629 16.2789 46.4051 15.0017 46.4051ZM26.4313 38.4447H3.57031V6.14569H26.4313V38.4447Z" fill="white"/>
</svg>
