<svg width="33" height="30" viewBox="0 0 33 30" fill="none" xmlns="http://www.w3.org/2000/svg">
<path d="M1.91668 12.1252H6.29168V29.6252H1.91668C1.5299 29.6252 1.15897 29.4715 0.885479 29.198C0.611989 28.9245 0.458344 28.5536 0.458344 28.1668V13.5835C0.458344 13.1967 0.611989 12.8258 0.885479 12.5523C1.15897 12.2788 1.5299 12.1252 1.91668 12.1252ZM9.63564 10.2395L18.969 0.906204C19.093 0.7818 19.2578 0.706364 19.433 0.693771C19.6083 0.681178 19.7822 0.732274 19.9227 0.837663L21.1667 1.771C21.5122 2.03035 21.7731 2.3862 21.9166 2.79366C22.0602 3.20112 22.0798 3.64196 21.9731 4.06058L20.2917 10.6668H29.625C30.3986 10.6668 31.1404 10.9741 31.6874 11.5211C32.2344 12.0681 32.5417 12.8099 32.5417 13.5835V16.6518C32.5421 17.033 32.4678 17.4105 32.3229 17.7631L27.8094 28.7225C27.6993 28.9896 27.5123 29.2181 27.2721 29.3788C27.0319 29.5395 26.7494 29.6253 26.4604 29.6252H10.6667C10.2799 29.6252 9.90897 29.4715 9.63548 29.198C9.36199 28.9245 9.20834 28.5536 9.20834 28.1668V11.2706C9.20843 10.8838 9.36213 10.513 9.63564 10.2395Z" fill="white"/>
</svg>
