<svg width="22" height="18" viewBox="0 0 22 18" fill="none" xmlns="http://www.w3.org/2000/svg">
<path d="M21.162 2.65593C20.3985 2.99362 19.5889 3.2154 18.76 3.31393C19.6337 2.79136 20.2877 1.96894 20.6 0.999927C19.78 1.48793 18.881 1.82993 17.944 2.01493C17.3146 1.34151 16.4803 0.89489 15.5709 0.744511C14.6615 0.594133 13.7279 0.748418 12.9152 1.18338C12.1026 1.61834 11.4564 2.30961 11.0771 3.14972C10.6978 3.98983 10.6067 4.93171 10.818 5.82893C9.15509 5.74558 7.52831 5.31345 6.04327 4.56059C4.55822 3.80773 3.24811 2.75097 2.19798 1.45893C1.82627 2.09738 1.63094 2.82315 1.63198 3.56193C1.63198 5.01193 2.36998 6.29293 3.49198 7.04293C2.82799 7.02202 2.17861 6.84271 1.59798 6.51993V6.57193C1.59818 7.53763 1.93235 8.47354 2.54383 9.22099C3.15531 9.96843 4.00646 10.4814 4.95298 10.6729C4.33659 10.84 3.69029 10.8646 3.06298 10.7449C3.32985 11.5762 3.84999 12.3031 4.55057 12.824C5.25116 13.3449 6.09711 13.6337 6.96998 13.6499C6.10246 14.3313 5.10916 14.8349 4.04686 15.1321C2.98456 15.4293 1.87411 15.5142 0.77898 15.3819C2.69068 16.6114 4.91608 17.264 7.18898 17.2619C14.882 17.2619 19.089 10.8889 19.089 5.36193C19.089 5.18193 19.084 4.99993 19.076 4.82193C19.8948 4.23009 20.6016 3.49695 21.163 2.65693L21.162 2.65593Z" fill="#232233"/>
</svg>
